<svg width="24" height="27" viewBox="0 0 24 27" fill="none" xmlns="http://www.w3.org/2000/svg">
<path d="M11.1485 23.6998H12.8514C12.5885 24.0517 12.2539 24.2134 11.9999 24.2134C11.746 24.2134 11.4114 24.0517 11.1485 23.6998Z" stroke="#464646" stroke-width="2" stroke-linecap="round" stroke-linejoin="round"/>
<path d="M18.8486 20.3451C19.2084 20.3451 19.5404 20.1518 19.7181 19.839C19.8958 19.5262 19.8918 19.142 19.7076 18.833L19.0006 17.6471L19.0004 17.642V10.1235C19.0004 6.12551 15.8445 2.41687 12.0004 2.41687C8.15626 2.41687 5.00037 6.12551 5.00037 10.1235V17.6467L4.29264 18.8326C4.10825 19.1416 4.10409 19.5259 4.28176 19.8388C4.45943 20.1517 4.79152 20.3451 5.15137 20.3451H18.8486Z" stroke="#464646" stroke-width="2" stroke-linecap="round" stroke-linejoin="round"/>
</svg>
