<svg width="167" height="172" viewBox="0 0 167 172" fill="none" xmlns="http://www.w3.org/2000/svg">
<path d="M95.4524 4.38592C92.1682 1.56211 87.9091 0 83.494 0C79.079 0 74.8198 1.56211 71.5356 4.38592L5.9285 60.8014C4.06314 62.4067 2.57137 64.3695 1.55002 66.5623C0.528676 68.7551 0.000574454 71.1289 0 73.5297V154.066C0 158.608 1.88514 162.963 5.2407 166.174C8.59626 169.385 13.1474 171.189 17.8929 171.189H41.75C46.4955 171.189 51.0466 169.385 54.4022 166.174C57.7577 162.963 59.6429 158.608 59.6429 154.066V108.404C59.6429 106.89 60.2712 105.439 61.3898 104.368C62.5083 103.298 64.0253 102.696 65.6071 102.696H101.393C102.975 102.696 104.492 103.298 105.61 104.368C106.729 105.439 107.357 106.89 107.357 108.404V154.066C107.357 158.608 109.242 162.963 112.598 166.174C115.953 169.385 120.505 171.189 125.25 171.189H149.107C153.853 171.189 158.404 169.385 161.759 166.174C165.115 162.963 167 158.608 167 154.066V73.5297C166.999 71.1289 166.471 68.7551 165.45 66.5623C164.429 64.3695 162.937 62.4067 161.072 60.8014L95.4644 4.38592H95.4524Z" fill="#71B5DA"/>
</svg>
