<svg width="198" height="190" viewBox="0 0 198 190" fill="none" xmlns="http://www.w3.org/2000/svg">
<g clip-path="url(#clip0_256_129)">
<path d="M191.51 56.9504L138.38 6.10559C134.31 2.21064 128.7 0 122.87 0H22C9.9 0 0 9.47419 0 21.0538V168.43C0 180.01 9.9 189.484 22 189.484H176C188.1 189.484 198 180.01 198 168.43V71.8986C198 66.3194 195.69 60.9506 191.51 56.9504ZM44 42.1075H121V63.1613H44V42.1075ZM154 147.376H44V126.323H154V147.376ZM154 105.269H44V84.2151H154V105.269Z" fill="#7B8D9E"/>
</g>
<defs>
<clipPath id="clip0_256_129">
<rect width="198" height="189.484" fill="white"/>
</clipPath>
</defs>
</svg>
